<mxfile host="app.diagrams.net" modified="2022-08-29T11:27:40.685Z" agent="5.0 (Macintosh; Intel Mac OS X 10_15_7) AppleWebKit/537.36 (KHTML, like Gecko) Chrome/104.0.5112.81 Safari/537.36" etag="pjuMk957Uk-iGCB5QYrG" version="20.2.4" type="github" pages="3">
  <diagram id="prtHgNgQTEPvFCAcTncT" name="JiraStates">
    <mxGraphModel dx="1351" dy="962" grid="0" gridSize="10" guides="1" tooltips="1" connect="1" arrows="1" fold="1" page="1" pageScale="1" pageWidth="1169" pageHeight="827" math="0" shadow="0">
      <root>
        <mxCell id="0" />
        <mxCell id="1" parent="0" />
        <mxCell id="iMsY0YMk1mzZe4SdZw98-17" value="ServiceNow" style="html=1;outlineConnect=0;whiteSpace=wrap;fillColor=#d5e8d4;shape=mxgraph.archimate3.application;appType=proc;archiType=rounded;fontSize=16;strokeColor=#82b366;verticalAlign=top;fontStyle=1;align=left;" parent="1" vertex="1">
          <mxGeometry x="92" y="325" width="1040" height="285" as="geometry" />
        </mxCell>
        <mxCell id="iMsY0YMk1mzZe4SdZw98-16" value="Jira" style="html=1;outlineConnect=0;whiteSpace=wrap;fillColor=#dae8fc;shape=mxgraph.archimate3.application;appType=proc;archiType=rounded;gradientColor=#CCE5FF;fontSize=16;strokeColor=#6c8ebf;verticalAlign=top;fontStyle=1;align=left;" parent="1" vertex="1">
          <mxGeometry x="92" y="172" width="1040" height="146" as="geometry" />
        </mxCell>
        <mxCell id="pSK2qEDxXkrErEkI7SS4-2" value="Generate New BRV" style="html=1;outlineConnect=0;whiteSpace=wrap;fillColor=#d5e8d4;shape=mxgraph.archimate3.application;appType=proc;archiType=rounded;fontSize=9;verticalAlign=top;align=center;strokeColor=#82b366;" parent="1" vertex="1">
          <mxGeometry x="119" y="393" width="159" height="184" as="geometry" />
        </mxCell>
        <mxCell id="t7MuCdO1gUGMO8HCq8w8-4" value="" style="edgeStyle=orthogonalEdgeStyle;rounded=0;orthogonalLoop=1;jettySize=auto;html=1;" edge="1" parent="1" source="EFYF2E0xY7p-tjgN2YZI-1" target="EFYF2E0xY7p-tjgN2YZI-2">
          <mxGeometry relative="1" as="geometry" />
        </mxCell>
        <mxCell id="EFYF2E0xY7p-tjgN2YZI-1" value="Get Max Number with # from:&lt;br&gt;&amp;lt;sn_devops_plan_version&amp;gt; for Jira Project and ..." style="html=1;outlineConnect=0;whiteSpace=wrap;fillColor=#d5e8d4;shape=mxgraph.archimate3.application;appType=proc;archiType=rounded;fontSize=9;verticalAlign=middle;align=center;strokeColor=#82b366;" vertex="1" parent="1">
          <mxGeometry x="140" y="427" width="120.5" height="49" as="geometry" />
        </mxCell>
        <mxCell id="EFYF2E0xY7p-tjgN2YZI-2" value="increment number:&lt;br&gt;plus 1" style="html=1;outlineConnect=0;whiteSpace=wrap;fillColor=#d5e8d4;shape=mxgraph.archimate3.application;appType=proc;archiType=rounded;fontSize=9;verticalAlign=middle;align=center;strokeColor=#82b366;" vertex="1" parent="1">
          <mxGeometry x="140" y="500" width="120.5" height="49" as="geometry" />
        </mxCell>
        <mxCell id="EFYF2E0xY7p-tjgN2YZI-3" value="POST new BRV to Jira" style="html=1;outlineConnect=0;whiteSpace=wrap;fillColor=#d5e8d4;shape=mxgraph.archimate3.application;appType=proc;archiType=rounded;fontSize=9;verticalAlign=middle;align=center;strokeColor=#82b366;" vertex="1" parent="1">
          <mxGeometry x="340" y="427" width="120.5" height="49" as="geometry" />
        </mxCell>
        <mxCell id="EFYF2E0xY7p-tjgN2YZI-4" value="Update Jira Issue with new BRV (version ID)" style="html=1;outlineConnect=0;whiteSpace=wrap;fillColor=#d5e8d4;shape=mxgraph.archimate3.application;appType=proc;archiType=rounded;fontSize=9;verticalAlign=middle;align=center;strokeColor=#82b366;" vertex="1" parent="1">
          <mxGeometry x="771.65" y="427" width="120.5" height="49" as="geometry" />
        </mxCell>
        <mxCell id="t7MuCdO1gUGMO8HCq8w8-12" value="A" style="edgeStyle=orthogonalEdgeStyle;rounded=0;orthogonalLoop=1;jettySize=auto;html=1;" edge="1" parent="1" source="EFYF2E0xY7p-tjgN2YZI-5" target="EFYF2E0xY7p-tjgN2YZI-6">
          <mxGeometry relative="1" as="geometry" />
        </mxCell>
        <mxCell id="EFYF2E0xY7p-tjgN2YZI-5" value="New BRV added" style="html=1;outlineConnect=0;whiteSpace=wrap;fillColor=#dae8fc;shape=mxgraph.archimate3.application;appType=proc;archiType=rounded;gradientColor=#7ea6e0;fontSize=9;strokeColor=#6c8ebf;" vertex="1" parent="1">
          <mxGeometry x="336" y="217" width="264" height="46" as="geometry" />
        </mxCell>
        <mxCell id="EFYF2E0xY7p-tjgN2YZI-6" value="Call SN on added BRV" style="html=1;outlineConnect=0;whiteSpace=wrap;fillColor=#dae8fc;shape=mxgraph.archimate3.application;appType=proc;archiType=rounded;gradientColor=#7ea6e0;fontSize=9;strokeColor=#6c8ebf;" vertex="1" parent="1">
          <mxGeometry x="641.65" y="217" width="89" height="46" as="geometry" />
        </mxCell>
        <mxCell id="EFYF2E0xY7p-tjgN2YZI-7" value="Add BRV record to the table:&lt;br&gt;&amp;lt;sn_devops_plan_version&amp;gt;" style="html=1;outlineConnect=0;whiteSpace=wrap;fillColor=#d5e8d4;shape=mxgraph.archimate3.application;appType=proc;archiType=rounded;fontSize=9;verticalAlign=middle;align=center;strokeColor=#82b366;" vertex="1" parent="1">
          <mxGeometry x="625.9" y="351" width="120.5" height="49" as="geometry" />
        </mxCell>
        <mxCell id="EFYF2E0xY7p-tjgN2YZI-8" value="Jira issue updated" style="html=1;outlineConnect=0;whiteSpace=wrap;fillColor=#dae8fc;shape=mxgraph.archimate3.application;appType=proc;archiType=rounded;gradientColor=#7ea6e0;fontSize=9;strokeColor=#6c8ebf;" vertex="1" parent="1">
          <mxGeometry x="787.4" y="217" width="89" height="46" as="geometry" />
        </mxCell>
        <mxCell id="t7MuCdO1gUGMO8HCq8w8-1" value="" style="edgeStyle=elbowEdgeStyle;html=1;endArrow=block;dashed=1;elbow=vertical;endFill=1;dashPattern=6 4;rounded=0;fontSize=12;" edge="1" parent="1" source="EarsJp9c6__o34GdYXSL-1" target="pSK2qEDxXkrErEkI7SS4-2">
          <mxGeometry width="160" relative="1" as="geometry">
            <mxPoint x="199.5" y="263" as="sourcePoint" />
            <mxPoint x="968" y="355" as="targetPoint" />
          </mxGeometry>
        </mxCell>
        <mxCell id="t7MuCdO1gUGMO8HCq8w8-2" value="&lt;b&gt;1&lt;/b&gt;" style="edgeLabel;html=1;align=center;verticalAlign=middle;resizable=0;points=[];fontSize=12;" vertex="1" connectable="0" parent="t7MuCdO1gUGMO8HCq8w8-1">
          <mxGeometry x="0.0913" y="1" relative="1" as="geometry">
            <mxPoint as="offset" />
          </mxGeometry>
        </mxCell>
        <mxCell id="t7MuCdO1gUGMO8HCq8w8-5" value="" style="edgeStyle=elbowEdgeStyle;html=1;endArrow=block;dashed=1;elbow=vertical;endFill=1;dashPattern=6 4;rounded=0;fontSize=12;" edge="1" parent="1" source="pSK2qEDxXkrErEkI7SS4-2" target="EFYF2E0xY7p-tjgN2YZI-3">
          <mxGeometry width="160" relative="1" as="geometry">
            <mxPoint x="209.5" y="273" as="sourcePoint" />
            <mxPoint x="208.5" y="403" as="targetPoint" />
          </mxGeometry>
        </mxCell>
        <mxCell id="t7MuCdO1gUGMO8HCq8w8-6" value="&lt;b&gt;2&lt;/b&gt;" style="edgeLabel;html=1;align=center;verticalAlign=middle;resizable=0;points=[];fontSize=12;" vertex="1" connectable="0" parent="t7MuCdO1gUGMO8HCq8w8-5">
          <mxGeometry x="0.0913" y="1" relative="1" as="geometry">
            <mxPoint as="offset" />
          </mxGeometry>
        </mxCell>
        <mxCell id="t7MuCdO1gUGMO8HCq8w8-7" value="" style="html=1;endArrow=block;dashed=1;elbow=vertical;endFill=1;dashPattern=6 4;rounded=0;fontSize=12;entryX=0.25;entryY=1;entryDx=0;entryDy=0;entryPerimeter=0;" edge="1" parent="1" source="EFYF2E0xY7p-tjgN2YZI-3" target="EFYF2E0xY7p-tjgN2YZI-5">
          <mxGeometry width="160" relative="1" as="geometry">
            <mxPoint x="251.5" y="283" as="sourcePoint" />
            <mxPoint x="250.5" y="413" as="targetPoint" />
          </mxGeometry>
        </mxCell>
        <mxCell id="t7MuCdO1gUGMO8HCq8w8-8" value="&lt;b&gt;3&lt;/b&gt;" style="edgeLabel;html=1;align=center;verticalAlign=middle;resizable=0;points=[];fontSize=12;" vertex="1" connectable="0" parent="t7MuCdO1gUGMO8HCq8w8-7">
          <mxGeometry x="0.0913" y="1" relative="1" as="geometry">
            <mxPoint as="offset" />
          </mxGeometry>
        </mxCell>
        <mxCell id="t7MuCdO1gUGMO8HCq8w8-11" value="Get response on newly added BRV with Version ID" style="html=1;outlineConnect=0;whiteSpace=wrap;fillColor=#d5e8d4;shape=mxgraph.archimate3.application;appType=proc;archiType=rounded;fontSize=9;verticalAlign=middle;align=center;strokeColor=#82b366;" vertex="1" parent="1">
          <mxGeometry x="474" y="427" width="120.5" height="49" as="geometry" />
        </mxCell>
        <mxCell id="t7MuCdO1gUGMO8HCq8w8-13" value="B" style="edgeStyle=orthogonalEdgeStyle;rounded=0;orthogonalLoop=1;jettySize=auto;html=1;" edge="1" parent="1" source="EFYF2E0xY7p-tjgN2YZI-6" target="EFYF2E0xY7p-tjgN2YZI-7">
          <mxGeometry relative="1" as="geometry">
            <mxPoint x="559" y="250" as="sourcePoint" />
            <mxPoint x="651.6500000000001" y="250" as="targetPoint" />
          </mxGeometry>
        </mxCell>
        <mxCell id="t7MuCdO1gUGMO8HCq8w8-14" value="" style="html=1;endArrow=block;dashed=1;elbow=vertical;endFill=1;dashPattern=6 4;rounded=0;fontSize=12;exitX=0.75;exitY=1;exitDx=0;exitDy=0;exitPerimeter=0;" edge="1" parent="1" source="EFYF2E0xY7p-tjgN2YZI-5" target="t7MuCdO1gUGMO8HCq8w8-11">
          <mxGeometry width="160" relative="1" as="geometry">
            <mxPoint x="415.6510047281324" y="437" as="sourcePoint" />
            <mxPoint x="451.80466903073284" y="273" as="targetPoint" />
          </mxGeometry>
        </mxCell>
        <mxCell id="t7MuCdO1gUGMO8HCq8w8-15" value="&lt;b&gt;4&lt;/b&gt;" style="edgeLabel;html=1;align=center;verticalAlign=middle;resizable=0;points=[];fontSize=12;" vertex="1" connectable="0" parent="t7MuCdO1gUGMO8HCq8w8-14">
          <mxGeometry x="0.0913" y="1" relative="1" as="geometry">
            <mxPoint as="offset" />
          </mxGeometry>
        </mxCell>
        <mxCell id="t7MuCdO1gUGMO8HCq8w8-16" value="" style="html=1;endArrow=block;dashed=1;elbow=vertical;endFill=1;dashPattern=6 4;rounded=0;fontSize=12;" edge="1" parent="1" source="t7MuCdO1gUGMO8HCq8w8-11" target="EFYF2E0xY7p-tjgN2YZI-7">
          <mxGeometry width="160" relative="1" as="geometry">
            <mxPoint x="436.6510047281324" y="447" as="sourcePoint" />
            <mxPoint x="472.80466903073284" y="283" as="targetPoint" />
          </mxGeometry>
        </mxCell>
        <mxCell id="t7MuCdO1gUGMO8HCq8w8-17" value="&lt;b&gt;5&lt;/b&gt;" style="edgeLabel;html=1;align=center;verticalAlign=middle;resizable=0;points=[];fontSize=12;" vertex="1" connectable="0" parent="t7MuCdO1gUGMO8HCq8w8-16">
          <mxGeometry x="0.0913" y="1" relative="1" as="geometry">
            <mxPoint as="offset" />
          </mxGeometry>
        </mxCell>
        <mxCell id="t7MuCdO1gUGMO8HCq8w8-18" value="" style="html=1;endArrow=block;dashed=1;elbow=vertical;endFill=1;dashPattern=6 4;rounded=0;fontSize=12;" edge="1" parent="1" source="EFYF2E0xY7p-tjgN2YZI-7" target="EFYF2E0xY7p-tjgN2YZI-4">
          <mxGeometry width="160" relative="1" as="geometry">
            <mxPoint x="446.6510047281324" y="457" as="sourcePoint" />
            <mxPoint x="482.80466903073284" y="293" as="targetPoint" />
          </mxGeometry>
        </mxCell>
        <mxCell id="t7MuCdO1gUGMO8HCq8w8-19" value="&lt;b&gt;6&lt;/b&gt;" style="edgeLabel;html=1;align=center;verticalAlign=middle;resizable=0;points=[];fontSize=12;" vertex="1" connectable="0" parent="t7MuCdO1gUGMO8HCq8w8-18">
          <mxGeometry x="0.0913" y="1" relative="1" as="geometry">
            <mxPoint as="offset" />
          </mxGeometry>
        </mxCell>
        <mxCell id="EarsJp9c6__o34GdYXSL-1" value="&lt;span style=&quot;font-size: 9px;&quot;&gt;&quot;Auto-BRV&quot; selected&lt;/span&gt;" style="html=1;outlineConnect=0;whiteSpace=wrap;fillColor=#dae8fc;shape=mxgraph.archimate3.event;strokeColor=#6c8ebf;" vertex="1" parent="1">
          <mxGeometry x="128.25" y="217" width="144" height="57" as="geometry" />
        </mxCell>
        <mxCell id="EarsJp9c6__o34GdYXSL-2" value="Start SN Release" style="html=1;outlineConnect=0;whiteSpace=wrap;fillColor=#d5e8d4;shape=mxgraph.archimate3.application;appType=proc;archiType=rounded;fontSize=9;verticalAlign=middle;align=center;strokeColor=#82b366;" vertex="1" parent="1">
          <mxGeometry x="978" y="351" width="120.5" height="49" as="geometry" />
        </mxCell>
        <mxCell id="EarsJp9c6__o34GdYXSL-3" value="i" style="edgeStyle=orthogonalEdgeStyle;rounded=0;orthogonalLoop=1;jettySize=auto;html=1;" edge="1" parent="1" source="EFYF2E0xY7p-tjgN2YZI-8" target="EarsJp9c6__o34GdYXSL-2">
          <mxGeometry relative="1" as="geometry">
            <mxPoint x="696.2" y="273" as="sourcePoint" />
            <mxPoint x="696.1200000000001" y="361" as="targetPoint" />
          </mxGeometry>
        </mxCell>
        <mxCell id="EarsJp9c6__o34GdYXSL-4" value="" style="html=1;endArrow=block;dashed=1;elbow=vertical;endFill=1;dashPattern=6 4;rounded=0;fontSize=12;" edge="1" parent="1" source="EFYF2E0xY7p-tjgN2YZI-4" target="EFYF2E0xY7p-tjgN2YZI-8">
          <mxGeometry width="160" relative="1" as="geometry">
            <mxPoint x="743.1351973684209" y="410" as="sourcePoint" />
            <mxPoint x="794.9148026315788" y="437" as="targetPoint" />
          </mxGeometry>
        </mxCell>
        <mxCell id="EarsJp9c6__o34GdYXSL-5" value="&lt;b&gt;7&lt;/b&gt;" style="edgeLabel;html=1;align=center;verticalAlign=middle;resizable=0;points=[];fontSize=12;" vertex="1" connectable="0" parent="EarsJp9c6__o34GdYXSL-4">
          <mxGeometry x="0.0913" y="1" relative="1" as="geometry">
            <mxPoint as="offset" />
          </mxGeometry>
        </mxCell>
      </root>
    </mxGraphModel>
  </diagram>
  <diagram name="Demand2Jira" id="8k3vtJ7wZARojMPT9Oh7">
    <mxGraphModel dx="1689" dy="1202" grid="0" gridSize="10" guides="1" tooltips="1" connect="1" arrows="1" fold="1" page="1" pageScale="1" pageWidth="1169" pageHeight="827" math="0" shadow="0">
      <root>
        <mxCell id="xSuzaZ8Z5w5o7VYrqbpk-0" />
        <mxCell id="xSuzaZ8Z5w5o7VYrqbpk-1" parent="xSuzaZ8Z5w5o7VYrqbpk-0" />
        <mxCell id="LLiB9AFe9znsr4EIBgN9-0" value="Jira" style="swimlane;" parent="xSuzaZ8Z5w5o7VYrqbpk-1" vertex="1">
          <mxGeometry x="847" y="87" width="303" height="368" as="geometry" />
        </mxCell>
        <mxCell id="LLiB9AFe9znsr4EIBgN9-1" value="Jira" style="html=1;outlineConnect=0;whiteSpace=wrap;fillColor=#dae8fc;shape=mxgraph.archimate3.application;appType=comp;archiType=square;strokeColor=#6c8ebf;" parent="LLiB9AFe9znsr4EIBgN9-0" vertex="1">
          <mxGeometry x="139" y="111" width="150" height="75" as="geometry" />
        </mxCell>
        <mxCell id="LLiB9AFe9znsr4EIBgN9-2" value="Jira API" style="html=1;outlineConnect=0;whiteSpace=wrap;fillColor=#dae8fc;shape=mxgraph.archimate3.application;appType=interface;archiType=square;strokeColor=#6c8ebf;" parent="LLiB9AFe9znsr4EIBgN9-0" vertex="1">
          <mxGeometry x="16" y="171" width="89" height="74" as="geometry" />
        </mxCell>
        <mxCell id="LLiB9AFe9znsr4EIBgN9-3" value="DB: Issue" style="html=1;outlineConnect=0;whiteSpace=wrap;fillColor=#dae8fc;shape=mxgraph.archimate3.businessObject;overflow=fill;strokeColor=#6c8ebf;" parent="LLiB9AFe9znsr4EIBgN9-0" vertex="1">
          <mxGeometry x="139" y="226" width="150" height="75" as="geometry" />
        </mxCell>
        <mxCell id="LLiB9AFe9znsr4EIBgN9-4" value="" style="edgeStyle=orthogonalEdgeStyle;html=1;endArrow=open;elbow=vertical;endFill=0;dashed=1;dashPattern=1 4;rounded=0;exitX=0.5;exitY=1;exitDx=0;exitDy=0;exitPerimeter=0;fillColor=#00b9f2;" parent="LLiB9AFe9znsr4EIBgN9-0" source="LLiB9AFe9znsr4EIBgN9-1" target="LLiB9AFe9znsr4EIBgN9-3" edge="1">
          <mxGeometry width="160" relative="1" as="geometry">
            <mxPoint x="-308" y="254" as="sourcePoint" />
            <mxPoint x="-428" y="299" as="targetPoint" />
          </mxGeometry>
        </mxCell>
        <mxCell id="LLiB9AFe9znsr4EIBgN9-5" value="" style="edgeStyle=elbowEdgeStyle;html=1;endArrow=block;dashed=1;elbow=horizontal;endFill=1;dashPattern=6 4;rounded=0;fontSize=12;entryX=0;entryY=0.5;entryDx=0;entryDy=0;entryPerimeter=0;exitX=1;exitY=0.5;exitDx=0;exitDy=0;exitPerimeter=0;" parent="LLiB9AFe9znsr4EIBgN9-0" source="LLiB9AFe9znsr4EIBgN9-2" target="LLiB9AFe9znsr4EIBgN9-1" edge="1">
          <mxGeometry width="160" relative="1" as="geometry">
            <mxPoint x="-234.25" y="158" as="sourcePoint" />
            <mxPoint x="25" y="157.8571428571429" as="targetPoint" />
          </mxGeometry>
        </mxCell>
        <mxCell id="LLiB9AFe9znsr4EIBgN9-6" value="&lt;b&gt;4&lt;/b&gt;" style="edgeLabel;html=1;align=center;verticalAlign=middle;resizable=0;points=[];fontSize=12;" parent="LLiB9AFe9znsr4EIBgN9-5" vertex="1" connectable="0">
          <mxGeometry x="0.0913" y="1" relative="1" as="geometry">
            <mxPoint as="offset" />
          </mxGeometry>
        </mxCell>
        <mxCell id="LLiB9AFe9znsr4EIBgN9-7" value="ServiceNow" style="swimlane;" parent="xSuzaZ8Z5w5o7VYrqbpk-1" vertex="1">
          <mxGeometry x="18" y="87" width="673" height="368" as="geometry" />
        </mxCell>
        <mxCell id="LLiB9AFe9znsr4EIBgN9-8" value="Demand updated" style="html=1;outlineConnect=0;whiteSpace=wrap;fillColor=#d5e8d4;shape=mxgraph.archimate3.event;strokeColor=#82b366;" parent="LLiB9AFe9znsr4EIBgN9-7" vertex="1">
          <mxGeometry x="11" y="164" width="78" height="57" as="geometry" />
        </mxCell>
        <mxCell id="LLiB9AFe9znsr4EIBgN9-9" value="Demand Management" style="html=1;outlineConnect=0;whiteSpace=wrap;fillColor=#d5e8d4;shape=mxgraph.archimate3.application;appType=func;archiType=rounded;strokeColor=#82b366;verticalAlign=top;" parent="LLiB9AFe9znsr4EIBgN9-7" vertex="1">
          <mxGeometry x="126" y="38" width="162" height="309" as="geometry" />
        </mxCell>
        <mxCell id="LLiB9AFe9znsr4EIBgN9-13" value="Data Changes &amp;lt;dmn_demand: &lt;font style=&quot;font-size: 10px;&quot;&gt;State,...&lt;br&gt;AND &lt;br&gt;Corr_Id is NULL&lt;/font&gt;&lt;br&gt;...&amp;gt;" style="html=1;outlineConnect=0;whiteSpace=wrap;fillColor=#d5e8d4;shape=mxgraph.archimate3.event;strokeColor=#82b366;" parent="LLiB9AFe9znsr4EIBgN9-7" vertex="1">
          <mxGeometry x="328" y="145.5" width="107" height="88" as="geometry" />
        </mxCell>
        <mxCell id="LLiB9AFe9znsr4EIBgN9-14" value="SN-2-Jira API" style="html=1;outlineConnect=0;whiteSpace=wrap;fillColor=#d5e8d4;shape=mxgraph.archimate3.application;appType=func;archiType=rounded;strokeColor=#82b366;verticalAlign=top;" parent="LLiB9AFe9znsr4EIBgN9-7" vertex="1">
          <mxGeometry x="470" y="38" width="162" height="303" as="geometry" />
        </mxCell>
        <mxCell id="LLiB9AFe9znsr4EIBgN9-15" value="Flow Designer" style="html=1;outlineConnect=0;whiteSpace=wrap;fillColor=#d5e8d4;shape=mxgraph.archimate3.application;appType=comp;archiType=square;verticalAlign=top;strokeColor=#82b366;" parent="LLiB9AFe9znsr4EIBgN9-7" vertex="1">
          <mxGeometry x="484" y="72" width="140" height="258" as="geometry" />
        </mxCell>
        <mxCell id="LLiB9AFe9znsr4EIBgN9-18" value="" style="edgeStyle=none;rounded=0;orthogonalLoop=1;jettySize=auto;html=1;" parent="LLiB9AFe9znsr4EIBgN9-7" source="LLiB9AFe9znsr4EIBgN9-8" target="LLiB9AFe9znsr4EIBgN9-9" edge="1">
          <mxGeometry relative="1" as="geometry" />
        </mxCell>
        <mxCell id="LLiB9AFe9znsr4EIBgN9-19" value="&lt;b&gt;A&lt;/b&gt;" style="edgeLabel;html=1;align=center;verticalAlign=middle;resizable=0;points=[];" parent="LLiB9AFe9znsr4EIBgN9-18" vertex="1" connectable="0">
          <mxGeometry x="0.0857" y="-1" relative="1" as="geometry">
            <mxPoint as="offset" />
          </mxGeometry>
        </mxCell>
        <mxCell id="LLiB9AFe9znsr4EIBgN9-20" value="Update dmn_demand" style="html=1;outlineConnect=0;whiteSpace=wrap;fillColor=#d5e8d4;shape=mxgraph.archimate3.application;appType=proc;archiType=rounded;strokeColor=#82b366;" parent="LLiB9AFe9znsr4EIBgN9-7" vertex="1">
          <mxGeometry x="508" y="264" width="92" height="45" as="geometry" />
        </mxCell>
        <mxCell id="LLiB9AFe9znsr4EIBgN9-21" value="" style="edgeStyle=none;rounded=0;orthogonalLoop=1;jettySize=auto;html=1;fontSize=6;" parent="LLiB9AFe9znsr4EIBgN9-7" source="LLiB9AFe9znsr4EIBgN9-13" target="LLiB9AFe9znsr4EIBgN9-14" edge="1">
          <mxGeometry relative="1" as="geometry" />
        </mxCell>
        <mxCell id="LLiB9AFe9znsr4EIBgN9-22" value="&lt;font style=&quot;font-size: 12px;&quot;&gt;&lt;b&gt;1&lt;/b&gt;&lt;/font&gt;" style="edgeLabel;html=1;align=center;verticalAlign=middle;resizable=0;points=[];fontSize=6;" parent="LLiB9AFe9znsr4EIBgN9-21" vertex="1" connectable="0">
          <mxGeometry x="0.4" y="-1" relative="1" as="geometry">
            <mxPoint x="-9" y="-1" as="offset" />
          </mxGeometry>
        </mxCell>
        <mxCell id="LLiB9AFe9znsr4EIBgN9-23" value="" style="edgeStyle=elbowEdgeStyle;html=1;endArrow=block;dashed=1;elbow=vertical;endFill=1;dashPattern=6 4;rounded=0;fontSize=12;" parent="LLiB9AFe9znsr4EIBgN9-7" source="LLiB9AFe9znsr4EIBgN9-27" target="LLiB9AFe9znsr4EIBgN9-20" edge="1">
          <mxGeometry width="160" relative="1" as="geometry">
            <mxPoint x="610" y="147.5" as="sourcePoint" />
            <mxPoint x="854" y="147.5999999999999" as="targetPoint" />
          </mxGeometry>
        </mxCell>
        <mxCell id="LLiB9AFe9znsr4EIBgN9-24" value="&lt;b&gt;5&lt;/b&gt;" style="edgeLabel;html=1;align=center;verticalAlign=middle;resizable=0;points=[];fontSize=12;" parent="LLiB9AFe9znsr4EIBgN9-23" vertex="1" connectable="0">
          <mxGeometry x="0.0913" y="1" relative="1" as="geometry">
            <mxPoint as="offset" />
          </mxGeometry>
        </mxCell>
        <mxCell id="LLiB9AFe9znsr4EIBgN9-25" value="&lt;div&gt;DB: &amp;lt;dmn_demand&amp;gt;&lt;br&gt;&lt;/div&gt;&lt;div&gt;&lt;br&gt;&lt;/div&gt;&lt;div&gt;Assignment Group&lt;/div&gt;&lt;div&gt;State&lt;/div&gt;&lt;div&gt;...&lt;br&gt;&lt;/div&gt;" style="html=1;outlineConnect=0;whiteSpace=wrap;fillColor=#d5e8d4;shape=mxgraph.archimate3.businessObject;overflow=fill;strokeColor=#82b366;" parent="LLiB9AFe9znsr4EIBgN9-7" vertex="1">
          <mxGeometry x="146.5" y="147.5" width="121" height="90" as="geometry" />
        </mxCell>
        <mxCell id="LLiB9AFe9znsr4EIBgN9-26" value="" style="edgeStyle=orthogonalEdgeStyle;html=1;endArrow=open;elbow=vertical;endFill=0;dashed=1;dashPattern=1 4;rounded=0;fillColor=#80b6a1;exitX=0;exitY=0.5;exitDx=0;exitDy=0;exitPerimeter=0;entryX=0.75;entryY=0;entryDx=0;entryDy=0;entryPerimeter=0;" parent="LLiB9AFe9znsr4EIBgN9-7" source="LLiB9AFe9znsr4EIBgN9-20" target="LLiB9AFe9znsr4EIBgN9-31" edge="1">
          <mxGeometry width="160" relative="1" as="geometry">
            <mxPoint x="508" y="237.51999999999998" as="sourcePoint" />
            <mxPoint x="408.5" y="257" as="targetPoint" />
          </mxGeometry>
        </mxCell>
        <mxCell id="LLiB9AFe9znsr4EIBgN9-27" value="Create/Update Jira Ticket" style="html=1;outlineConnect=0;whiteSpace=wrap;fillColor=#d5e8d4;shape=mxgraph.archimate3.application;appType=proc;archiType=rounded;strokeColor=#82b366;" parent="LLiB9AFe9znsr4EIBgN9-7" vertex="1">
          <mxGeometry x="508" y="183" width="92" height="45" as="geometry" />
        </mxCell>
        <mxCell id="LLiB9AFe9znsr4EIBgN9-28" value="Get data" style="html=1;outlineConnect=0;whiteSpace=wrap;fillColor=#d5e8d4;shape=mxgraph.archimate3.application;appType=proc;archiType=rounded;strokeColor=#82b366;" parent="LLiB9AFe9znsr4EIBgN9-7" vertex="1">
          <mxGeometry x="508" y="98" width="92" height="45" as="geometry" />
        </mxCell>
        <mxCell id="LLiB9AFe9znsr4EIBgN9-29" value="" style="html=1;endArrow=block;dashed=1;elbow=vertical;endFill=1;dashPattern=6 4;rounded=0;fontSize=12;entryX=0.5;entryY=0;entryDx=0;entryDy=0;entryPerimeter=0;" parent="LLiB9AFe9znsr4EIBgN9-7" source="LLiB9AFe9znsr4EIBgN9-28" target="LLiB9AFe9znsr4EIBgN9-27" edge="1">
          <mxGeometry width="160" relative="1" as="geometry">
            <mxPoint x="658" y="-115" as="sourcePoint" />
            <mxPoint x="818" y="-115" as="targetPoint" />
          </mxGeometry>
        </mxCell>
        <mxCell id="LLiB9AFe9znsr4EIBgN9-30" value="&lt;b&gt;2&lt;/b&gt;" style="edgeLabel;html=1;align=center;verticalAlign=middle;resizable=0;points=[];fontSize=12;" parent="LLiB9AFe9znsr4EIBgN9-29" vertex="1" connectable="0">
          <mxGeometry x="0.0913" y="1" relative="1" as="geometry">
            <mxPoint x="2" y="-4" as="offset" />
          </mxGeometry>
        </mxCell>
        <mxCell id="LLiB9AFe9znsr4EIBgN9-31" value="&lt;div&gt;&lt;span style=&quot;background-color: initial;&quot;&gt;Work Note&lt;/span&gt;&lt;br&gt;&lt;/div&gt;" style="html=1;outlineConnect=0;whiteSpace=wrap;fillColor=#f5f5f5;shape=mxgraph.archimate3.representation;fontSize=12;align=center;strokeColor=#666666;fontColor=#333333;" parent="LLiB9AFe9znsr4EIBgN9-7" vertex="1">
          <mxGeometry x="321" y="299" width="106" height="62" as="geometry" />
        </mxCell>
        <mxCell id="LLiB9AFe9znsr4EIBgN9-33" value="" style="edgeStyle=elbowEdgeStyle;html=1;endArrow=block;dashed=1;elbow=vertical;endFill=1;dashPattern=6 4;rounded=0;fontSize=12;" parent="xSuzaZ8Z5w5o7VYrqbpk-1" source="LLiB9AFe9znsr4EIBgN9-27" target="LLiB9AFe9znsr4EIBgN9-2" edge="1">
          <mxGeometry width="160" relative="1" as="geometry">
            <mxPoint x="582" y="325" as="sourcePoint" />
            <mxPoint x="582" y="361" as="targetPoint" />
          </mxGeometry>
        </mxCell>
        <mxCell id="LLiB9AFe9znsr4EIBgN9-34" value="&lt;b&gt;3&lt;/b&gt;" style="edgeLabel;html=1;align=center;verticalAlign=middle;resizable=0;points=[];fontSize=12;" parent="LLiB9AFe9znsr4EIBgN9-33" vertex="1" connectable="0">
          <mxGeometry x="0.0913" y="1" relative="1" as="geometry">
            <mxPoint as="offset" />
          </mxGeometry>
        </mxCell>
      </root>
    </mxGraphModel>
  </diagram>
  <diagram name="Jira2Demand" id="iWt_Gfq2palGg2kYie8L">
    <mxGraphModel dx="1689" dy="1202" grid="0" gridSize="10" guides="1" tooltips="1" connect="1" arrows="1" fold="1" page="1" pageScale="1" pageWidth="1169" pageHeight="827" math="0" shadow="0">
      <root>
        <mxCell id="QdbxIp1HC7oLeygjYpFO-0" />
        <mxCell id="QdbxIp1HC7oLeygjYpFO-1" parent="QdbxIp1HC7oLeygjYpFO-0" />
        <mxCell id="lrQfw4qjM-to83RJGYyX-0" value="Jira" style="swimlane;" parent="QdbxIp1HC7oLeygjYpFO-1" vertex="1">
          <mxGeometry x="797" y="70" width="328" height="361" as="geometry" />
        </mxCell>
        <mxCell id="lrQfw4qjM-to83RJGYyX-1" value="DB: Issue" style="html=1;outlineConnect=0;whiteSpace=wrap;fillColor=#dae8fc;shape=mxgraph.archimate3.businessObject;overflow=fill;strokeColor=#6c8ebf;" parent="lrQfw4qjM-to83RJGYyX-0" vertex="1">
          <mxGeometry x="147" y="175" width="130" height="61" as="geometry" />
        </mxCell>
        <mxCell id="lrQfw4qjM-to83RJGYyX-2" value="&lt;div&gt;Data &lt;br&gt;&lt;/div&gt;&lt;div&gt;Changes&lt;/div&gt;" style="html=1;outlineConnect=0;whiteSpace=wrap;fillColor=#dae8fc;shape=mxgraph.archimate3.event;direction=west;strokeColor=#6c8ebf;" parent="lrQfw4qjM-to83RJGYyX-0" vertex="1">
          <mxGeometry x="213" y="64" width="98" height="45" as="geometry" />
        </mxCell>
        <mxCell id="lrQfw4qjM-to83RJGYyX-3" value="ServiceNow" style="swimlane;" parent="QdbxIp1HC7oLeygjYpFO-1" vertex="1">
          <mxGeometry x="55" y="70" width="552" height="365" as="geometry" />
        </mxCell>
        <mxCell id="lrQfw4qjM-to83RJGYyX-4" value="&lt;div&gt;DevOps Module API&lt;/div&gt;" style="html=1;outlineConnect=0;whiteSpace=wrap;fillColor=#d5e8d4;shape=mxgraph.archimate3.application;appType=interface;archiType=square;strokeColor=#82b366;verticalAlign=top;" parent="lrQfw4qjM-to83RJGYyX-3" vertex="1">
          <mxGeometry x="26" y="56" width="413" height="96" as="geometry" />
        </mxCell>
        <mxCell id="lrQfw4qjM-to83RJGYyX-5" value="&lt;div&gt;Data &lt;br&gt;&lt;/div&gt;&lt;div&gt;transformation&lt;/div&gt;" style="html=1;outlineConnect=0;whiteSpace=wrap;fillColor=#d5e8d4;shape=mxgraph.archimate3.application;appType=func;archiType=rounded;strokeColor=#82b366;verticalAlign=middle;align=center;" parent="lrQfw4qjM-to83RJGYyX-3" vertex="1">
          <mxGeometry x="172" y="86" width="125" height="53" as="geometry" />
        </mxCell>
        <mxCell id="lrQfw4qjM-to83RJGYyX-6" value="&lt;div&gt;Asyn Flow&lt;/div&gt;&lt;div&gt;registration&lt;br&gt;&lt;/div&gt;" style="html=1;outlineConnect=0;whiteSpace=wrap;fillColor=#d5e8d4;shape=mxgraph.archimate3.application;appType=func;archiType=rounded;strokeColor=#82b366;verticalAlign=middle;align=center;" parent="lrQfw4qjM-to83RJGYyX-3" vertex="1">
          <mxGeometry x="38" y="86" width="125" height="53" as="geometry" />
        </mxCell>
        <mxCell id="lrQfw4qjM-to83RJGYyX-7" value="Pre-Validation" style="html=1;outlineConnect=0;whiteSpace=wrap;fillColor=#d5e8d4;shape=mxgraph.archimate3.application;appType=func;archiType=rounded;strokeColor=#82b366;verticalAlign=middle;align=center;" parent="lrQfw4qjM-to83RJGYyX-3" vertex="1">
          <mxGeometry x="306" y="86" width="125" height="53" as="geometry" />
        </mxCell>
        <mxCell id="lrQfw4qjM-to83RJGYyX-8" value="&lt;span id=&quot;hs_cos_wrapper_post_body&quot; class=&quot;hs_cos_wrapper hs_cos_wrapper_meta_field hs_cos_wrapper_type_rich_text&quot;&gt;Process Automation&lt;/span&gt;" style="html=1;outlineConnect=0;whiteSpace=wrap;fillColor=#d5e8d4;shape=mxgraph.archimate3.application;appType=func;archiType=rounded;verticalAlign=top;strokeColor=#82b366;" parent="lrQfw4qjM-to83RJGYyX-3" vertex="1">
          <mxGeometry x="94" y="191" width="186" height="123" as="geometry" />
        </mxCell>
        <mxCell id="lrQfw4qjM-to83RJGYyX-18" value="DB: dmn_demand" style="html=1;outlineConnect=0;whiteSpace=wrap;fillColor=#d5e8d4;shape=mxgraph.archimate3.businessObject;overflow=fill;strokeColor=#82b366;" parent="lrQfw4qjM-to83RJGYyX-3" vertex="1">
          <mxGeometry x="320" y="247.5" width="130" height="58" as="geometry" />
        </mxCell>
        <mxCell id="lrQfw4qjM-to83RJGYyX-20" value="Jira" style="html=1;outlineConnect=0;whiteSpace=wrap;fillColor=#dae8fc;shape=mxgraph.archimate3.application;appType=comp;archiType=square;strokeColor=#6c8ebf;verticalAlign=top;" parent="QdbxIp1HC7oLeygjYpFO-1" vertex="1">
          <mxGeometry x="810" y="119" width="163" height="75" as="geometry" />
        </mxCell>
        <mxCell id="lrQfw4qjM-to83RJGYyX-21" value="" style="edgeStyle=orthogonalEdgeStyle;html=1;endArrow=open;elbow=vertical;endFill=0;dashed=1;dashPattern=1 4;rounded=0;exitX=0.75;exitY=1;exitDx=0;exitDy=0;exitPerimeter=0;fillColor=#00b9f2;" parent="QdbxIp1HC7oLeygjYpFO-1" source="lrQfw4qjM-to83RJGYyX-20" target="lrQfw4qjM-to83RJGYyX-1" edge="1">
          <mxGeometry width="160" relative="1" as="geometry">
            <mxPoint x="727" y="234" as="sourcePoint" />
            <mxPoint x="772" y="291.5" as="targetPoint" />
          </mxGeometry>
        </mxCell>
        <mxCell id="lrQfw4qjM-to83RJGYyX-22" value="" style="edgeStyle=none;rounded=0;orthogonalLoop=1;jettySize=auto;html=1;fillColor=#80b6a1;exitX=1;exitY=0.5;exitDx=0;exitDy=0;exitPerimeter=0;entryX=1;entryY=0.5;entryDx=0;entryDy=0;entryPerimeter=0;" parent="QdbxIp1HC7oLeygjYpFO-1" source="lrQfw4qjM-to83RJGYyX-2" target="lrQfw4qjM-to83RJGYyX-20" edge="1">
          <mxGeometry relative="1" as="geometry">
            <mxPoint x="857" y="7" as="sourcePoint" />
            <mxPoint x="707" y="7" as="targetPoint" />
          </mxGeometry>
        </mxCell>
        <mxCell id="lrQfw4qjM-to83RJGYyX-23" value="&lt;font style=&quot;font-size: 14px&quot;&gt;&lt;b&gt;A&lt;/b&gt;&lt;/font&gt;" style="edgeLabel;html=1;align=center;verticalAlign=middle;resizable=0;points=[];fillColor=#80b6a1;" parent="lrQfw4qjM-to83RJGYyX-22" vertex="1" connectable="0">
          <mxGeometry x="0.1385" relative="1" as="geometry">
            <mxPoint y="1" as="offset" />
          </mxGeometry>
        </mxCell>
        <mxCell id="lrQfw4qjM-to83RJGYyX-24" value="" style="edgeStyle=orthogonalEdgeStyle;html=1;endArrow=open;elbow=vertical;endFill=0;dashed=1;dashPattern=1 4;rounded=0;exitX=0.25;exitY=1;exitDx=0;exitDy=0;exitPerimeter=0;entryX=1;entryY=0.5;entryDx=0;entryDy=0;entryPerimeter=0;fillColor=#80b6a1;" parent="QdbxIp1HC7oLeygjYpFO-1" source="lrQfw4qjM-to83RJGYyX-20" target="lrQfw4qjM-to83RJGYyX-26" edge="1">
          <mxGeometry width="160" relative="1" as="geometry">
            <mxPoint x="415" y="-223.5" as="sourcePoint" />
            <mxPoint x="374" y="-166" as="targetPoint" />
          </mxGeometry>
        </mxCell>
        <mxCell id="lrQfw4qjM-to83RJGYyX-25" value="" style="edgeStyle=orthogonalEdgeStyle;html=1;endArrow=open;elbow=vertical;endFill=0;dashed=1;dashPattern=1 4;rounded=0;fillColor=#80b6a1;entryX=0;entryY=0.5;entryDx=0;entryDy=0;entryPerimeter=0;exitX=1;exitY=0.75;exitDx=0;exitDy=0;exitPerimeter=0;" parent="QdbxIp1HC7oLeygjYpFO-1" source="lrQfw4qjM-to83RJGYyX-4" target="lrQfw4qjM-to83RJGYyX-26" edge="1">
          <mxGeometry width="160" relative="1" as="geometry">
            <mxPoint x="425" y="-213.5" as="sourcePoint" />
            <mxPoint x="384" y="-156" as="targetPoint" />
          </mxGeometry>
        </mxCell>
        <mxCell id="lrQfw4qjM-to83RJGYyX-26" value="&lt;div style=&quot;font-size: 12px;&quot;&gt;XML: Webhook Message&lt;/div&gt;" style="html=1;outlineConnect=0;whiteSpace=wrap;fillColor=#f5f5f5;shape=mxgraph.archimate3.representation;fontSize=12;align=center;strokeColor=#666666;fontColor=#333333;" parent="QdbxIp1HC7oLeygjYpFO-1" vertex="1">
          <mxGeometry x="624" y="284.5" width="153" height="69.5" as="geometry" />
        </mxCell>
        <mxCell id="lrQfw4qjM-to83RJGYyX-27" value="&lt;div&gt;&lt;b&gt;Asynchronous&lt;/b&gt;&lt;/div&gt;" style="text;html=1;align=center;verticalAlign=middle;resizable=0;points=[];autosize=1;strokeColor=none;fillColor=none;" parent="QdbxIp1HC7oLeygjYpFO-1" vertex="1">
          <mxGeometry x="654" y="134" width="102" height="26" as="geometry" />
        </mxCell>
        <mxCell id="lrQfw4qjM-to83RJGYyX-28" value="Webhook" style="html=1;outlineConnect=0;whiteSpace=wrap;fillColor=#dae8fc;shape=mxgraph.archimate3.application;appType=comp;archiType=square;strokeColor=#6c8ebf;verticalAlign=middle;" parent="QdbxIp1HC7oLeygjYpFO-1" vertex="1">
          <mxGeometry x="816" y="146.5" width="148.5" height="41" as="geometry" />
        </mxCell>
        <mxCell id="lrQfw4qjM-to83RJGYyX-29" value="Flow Designer" style="html=1;outlineConnect=0;whiteSpace=wrap;fillColor=#d5e8d4;shape=mxgraph.archimate3.application;appType=comp;archiType=square;strokeColor=#82b366;verticalAlign=top;" parent="QdbxIp1HC7oLeygjYpFO-1" vertex="1">
          <mxGeometry x="169" y="296" width="148" height="81" as="geometry" />
        </mxCell>
        <mxCell id="lrQfw4qjM-to83RJGYyX-30" value="Flow Action" style="html=1;outlineConnect=0;whiteSpace=wrap;fillColor=#d5e8d4;shape=mxgraph.archimate3.application;appType=comp;archiType=square;strokeColor=#82b366;verticalAlign=middle;" parent="QdbxIp1HC7oLeygjYpFO-1" vertex="1">
          <mxGeometry x="188.5" y="323" width="101" height="47" as="geometry" />
        </mxCell>
        <mxCell id="lrQfw4qjM-to83RJGYyX-32" value="&lt;b&gt;C&lt;/b&gt; (Asynchronous)" style="edgeStyle=orthogonalEdgeStyle;html=1;endArrow=block;dashed=1;elbow=vertical;endFill=1;dashPattern=6 4;rounded=0;exitX=0.25;exitY=1;exitDx=0;exitDy=0;exitPerimeter=0;entryX=0;entryY=0.5;entryDx=0;entryDy=0;entryPerimeter=0;" parent="QdbxIp1HC7oLeygjYpFO-1" source="lrQfw4qjM-to83RJGYyX-6" target="lrQfw4qjM-to83RJGYyX-29" edge="1">
          <mxGeometry x="-0.5157" width="160" relative="1" as="geometry">
            <mxPoint x="168" y="314" as="sourcePoint" />
            <mxPoint x="175" y="297" as="targetPoint" />
            <Array as="points">
              <mxPoint x="124" y="243" />
              <mxPoint x="125" y="243" />
              <mxPoint x="125" y="336" />
            </Array>
            <mxPoint as="offset" />
          </mxGeometry>
        </mxCell>
        <mxCell id="lrQfw4qjM-to83RJGYyX-33" value="" style="edgeStyle=elbowEdgeStyle;html=1;endArrow=block;dashed=1;elbow=vertical;endFill=1;dashPattern=6 4;rounded=0;fontSize=12;" parent="QdbxIp1HC7oLeygjYpFO-1" source="lrQfw4qjM-to83RJGYyX-28" target="lrQfw4qjM-to83RJGYyX-4" edge="1">
          <mxGeometry width="160" relative="1" as="geometry">
            <mxPoint x="493.0000000000002" y="184" as="sourcePoint" />
            <mxPoint x="590" y="178" as="targetPoint" />
            <Array as="points">
              <mxPoint x="646" y="178" />
              <mxPoint x="616" y="167" />
              <mxPoint x="668" y="173" />
              <mxPoint x="402" y="184" />
            </Array>
          </mxGeometry>
        </mxCell>
        <mxCell id="lrQfw4qjM-to83RJGYyX-34" value="&lt;b&gt;B&lt;/b&gt;" style="edgeLabel;html=1;align=center;verticalAlign=middle;resizable=0;points=[];fontSize=12;" parent="lrQfw4qjM-to83RJGYyX-33" vertex="1" connectable="0">
          <mxGeometry x="-0.0155" relative="1" as="geometry">
            <mxPoint as="offset" />
          </mxGeometry>
        </mxCell>
        <mxCell id="lrQfw4qjM-to83RJGYyX-35" value="" style="edgeStyle=orthogonalEdgeStyle;html=1;endArrow=open;elbow=vertical;endFill=0;dashed=1;dashPattern=1 4;rounded=0;fillColor=#80b6a1;entryX=0;entryY=0.5;entryDx=0;entryDy=0;entryPerimeter=0;exitX=1;exitY=0.5;exitDx=0;exitDy=0;exitPerimeter=0;" parent="QdbxIp1HC7oLeygjYpFO-1" source="lrQfw4qjM-to83RJGYyX-30" target="lrQfw4qjM-to83RJGYyX-18" edge="1">
          <mxGeometry width="160" relative="1" as="geometry">
            <mxPoint x="299.5" y="356.5" as="sourcePoint" />
            <mxPoint x="406" y="326" as="targetPoint" />
          </mxGeometry>
        </mxCell>
      </root>
    </mxGraphModel>
  </diagram>
</mxfile>
